<?xml version="1.0"?>
<svg xmlns="http://www.w3.org/2000/svg" width="25" height="150" viewBox="0 0 25 150"><svg xmlns:xlink="http://www.w3.org/1999/xlink" height="25" width="25" version="1.1" viewBox="0 0 25 25" id="facebook" y="0"><title>Facebook</title><desc>Created with sketchtool.</desc><g id="facebook-404-page" fill-rule="evenodd" fill="none"><g id="facebook-XS---404" transform="translate(-58 -1090)"><g id="facebook-Footer---mobile" transform="translate(0 919)"><g id="facebook-Social" transform="translate(58 170)"><g id="facebook-Facebook" transform="translate(0 1)"><path id="facebook-Fill-1" fill="#3B5998" d="m0 24.99h24.99v-24.99h-24.99v24.99z"/><path id="facebook-Fill-2" fill="#fff" d="m17.243 24.99v-9.677h3.248l0.486-3.772h-3.734v-2.4079c0-1.0919 0.303-1.8361 1.869-1.8361l1.997-0.0008v-3.3733c-0.346-0.0458-1.531-0.1486-2.91-0.1486-2.88 0-4.851 1.7576-4.851 4.9854v2.7813h-3.257v3.772h3.257v9.677h3.895z"/></g></g></g></g></g></svg><svg xmlns:xlink="http://www.w3.org/1999/xlink" height="25" width="25" version="1.1" viewBox="0 0 25 25" id="li" y="25"><title>Li</title><desc>Created with sketchtool.</desc><g id="li-404-page" fill-rule="evenodd" fill="none"><g id="li-XS---404" transform="translate(-202 -1090)"><g id="li-Footer---mobile" transform="translate(0 919)"><g id="li-Social" transform="translate(58 170)"><g id="li-Li" transform="translate(144 1)"><path id="li-Fill-1" fill="#0077B5" d="m0 25h25v-25h-25v25z"/><path id="li-Fill-2" fill="#fff" d="m5.5615 3.442c1.1854 0 2.149 0.9633 2.149 2.1491 0 1.187-0.9636 2.1505-2.149 2.1505-1.1885 0-2.1504-0.9635-2.1504-2.1505 0-1.1858 0.9619-2.1491 2.1504-2.1491zm-1.855 17.861h3.7081v-11.93l-3.7081-0.0005v11.93z"/><path id="li-Fill-4" fill="#fff" d="m9.7407 9.3725h3.5563v1.6305h0.05c0.495-0.938 1.704-1.9271 3.508-1.9271 3.755 0 4.448 2.4711 4.448 5.6831v6.544h-3.705v-5.802c0-1.383-0.026-3.163-1.927-3.163-1.929 0-2.225 1.507-2.225 3.063v5.902h-3.7053v-11.93z"/></g></g></g></g></g></svg><svg xmlns:xlink="http://www.w3.org/1999/xlink" height="25" width="25" version="1.1" viewBox="0 0 25 25" id="logo-google-plus-32-px-clr" y="50"><title>logo_google_plus_32px_clr</title><desc>Created with sketchtool.</desc><defs><rect id="logo-google-plus-32-px-clr-path-1" y="0" x="0" height="25" width="25"/></defs><g id="logo-google-plus-32-px-clr-404-page" fill-rule="evenodd" fill="none"><g id="logo-google-plus-32-px-clr-XS---404" transform="translate(-166 -1090)"><g id="logo-google-plus-32-px-clr-Footer---mobile" transform="translate(0 919)"><g id="logo-google-plus-32-px-clr-Social" transform="translate(58 170)"><g id="logo-google-plus-32-px-clr-logo_google_plus_32px_clr" transform="translate(108 1)"><g id="logo-google-plus-32-px-clr-button-bg"><use xlink:href="#logo-google-plus-32-px-clr-path-1" fill-rule="evenodd" fill="#DC4E41"/><g fill="none"><use xlink:href="#logo-google-plus-32-px-clr-path-1"/><use xlink:href="#logo-google-plus-32-px-clr-path-1"/><use xlink:href="#logo-google-plus-32-px-clr-path-1"/></g></g><path id="logo-google-plus-32-px-clr-Shape" fill="#fff" d="m10 11.875v1.5h2.481c-0.1 0.644-0.75 1.887-2.481 1.887-1.4938 0-2.7125-1.237-2.7125-2.762s1.2187-2.7625 2.7125-2.7625c0.85 0 1.419 0.3625 1.744 0.6745l1.187-1.1432c-0.762-0.7126-1.75-1.1438-2.931-1.1438-2.4188 0-4.375 1.956-4.375 4.375s1.9562 4.375 4.375 4.375c2.525 0 4.2-1.775 4.2-4.275 0-0.288-0.031-0.506-0.069-0.725h-4.131z"/><path id="logo-google-plus-32-px-clr-Shape" fill="#fff" d="m19.375 11.875h-1.25v-1.25h-1.25v1.25h-1.25v1.25h1.25v1.25h1.25v-1.25h1.25"/></g></g></g></g></g></svg><svg xmlns:xlink="http://www.w3.org/1999/xlink" height="25" width="25" version="1.1" viewBox="0 0 25 25" id="pinterest" y="75"><title>Pinterest</title><desc>Created with sketchtool.</desc><g id="pinterest-404-page" fill-rule="evenodd" fill="none"><g id="pinterest-XS---404" transform="translate(-238 -1090)"><g id="pinterest-Footer---mobile" transform="translate(0 919)"><g id="pinterest-Social" transform="translate(58 170)"><g id="pinterest-Pinterest" transform="translate(180 1)"><path id="pinterest-Fill-1" fill="#BD071C" d="m0 25h25v-25l-25-0.0001v25z"/><path id="pinterest-Fill-2" fill="#fff" d="m12.5 5.5c-3.8661 0-7.0001 3.134-7.0001 7 0 2.966 1.845 5.498 4.449 6.518-0.061-0.553-0.116-1.403 0.024-2.008 0.1271-0.546 0.8211-3.479 0.8211-3.479s-0.209-0.419-0.209-1.039c0-0.974 0.564-1.7 1.266-1.7 0.598 0 0.886 0.448 0.886 0.986 0 0.6-0.382 1.498-0.58 2.33-0.165 0.697 0.35 1.265 1.037 1.265 1.244 0 2.2-1.312 2.2-3.205 0-1.676-1.204-2.848-2.924-2.848-1.991 0-3.1601 1.494-3.1601 3.038 0 0.601 0.231 1.247 0.521 1.597 0.057 0.07 0.065 0.13 0.048 0.201-0.053 0.221-0.171 0.697-0.194 0.794-0.031 0.128-0.102 0.155-0.234 0.093-0.875-0.407-1.421-1.685-1.421-2.711 0-2.209 1.604-4.236 4.6251-4.236 2.428 0 4.315 1.73 4.315 4.043 0 2.412-1.521 4.353-3.632 4.353-0.709 0-1.376-0.368-1.604-0.803 0 0-0.351 1.336-0.437 1.664-0.158 0.608-0.584 1.37-0.87 1.835 0.655 0.203 1.351 0.312 2.073 0.312 3.866 0 7-3.134 7-7s-3.134-7-7-7"/></g></g></g></g></g></svg><svg xmlns:xlink="http://www.w3.org/1999/xlink" height="25" width="25" version="1.1" viewBox="0 0 25 25" id="r-s-s" y="100"><title>RSS</title><desc>Created with sketchtool.</desc><g id="r-s-s-404-page" fill-rule="evenodd" fill="none"><g id="r-s-s-XS---404" transform="translate(-130 -1090)"><g id="r-s-s-Footer---mobile" transform="translate(0 919)"><g id="r-s-s-Social" transform="translate(58 170)"><g id="r-s-s-RSS" transform="translate(72)"><path id="r-s-s-Fill-1" fill="#F05B2A" d="m0 25.688h24.75v-24.688l-24.75-0.0005v24.688z"/><path id="r-s-s-Fill-2" fill="#fff" d="m17.778 18.215c0.007 0.102-0.026 0.19-0.102 0.265-0.067 0.075-0.154 0.113-0.259 0.113h-0.806c-0.097 0-0.181-0.033-0.25-0.099-0.07-0.066-0.107-0.145-0.11-0.239-0.042-0.75-0.359-3.549-2.742-5.86-2.73-2.6462-5.392-2.7292-6.2-2.7782-0.094-0.004-0.174-0.04-0.24-0.11-0.065-0.07-0.098-0.151-0.098-0.245v-0.806c0-0.105 0.037-0.192 0.112-0.259 0.068-0.068 0.151-0.102 0.248-0.102h0.018c0.131 0.007 0.259 0.024 0.389 0.037l-0.037-0.037h0.022c1.31 0.065 2.564 0.365 3.761 0.9s2.261 1.2702 3.191 2.2042c0.934 0.93 1.669 1.994 2.204 3.191 0.535 1.198 0.835 2.451 0.9 3.761l-0.008-0.008c0.002 0.024 0.006 0.048 0.007 0.072zm-4.039 0.378c-0.097 0-0.181-0.033-0.25-0.099-0.07-0.066-0.107-0.145-0.11-0.239-0.046-0.808-0.235-1.575-0.57-2.303-0.334-0.727-0.769-1.358-1.304-1.893-0.536-0.536-1.167-0.97-1.894-1.305-0.727-0.334-1.494-0.526-2.302-0.575-0.094-0.003-0.174-0.04-0.24-0.11-0.065-0.069-0.098-0.151-0.098-0.245v-0.746c0.093 0.018 0.186 0.034 0.283 0.038l0.04 0.002c0.798 0.047 2.917 0.17 5.17 2.354 2.029 1.967 2.263 4.399 2.289 4.867 0.002 0.051 0.015 0.103 0.021 0.154-0.063 0.059-0.136 0.1-0.229 0.1h-0.806zm-1.814-0.119c-0.068 0.079-0.156 0.119-0.265 0.119h-0.761c-0.094 0-0.175-0.031-0.242-0.093-0.068-0.062-0.106-0.14-0.113-0.234-0.083-0.86-0.43-1.596-1.04-2.206-0.61-0.611-1.346-0.957-2.206-1.04-0.094-0.008-0.172-0.045-0.234-0.113-0.062-0.067-0.093-0.148-0.093-0.242v-0.761c0-0.109 0.039-0.197 0.118-0.265 0.064-0.064 0.145-0.096 0.242-0.096h0.029c0.601 0.049 1.176 0.2 1.724 0.454 0.549 0.254 1.035 0.595 1.46 1.023 0.428 0.424 0.769 0.911 1.023 1.46 0.253 0.548 0.405 1.123 0.453 1.724 0.008 0.105-0.024 0.195-0.095 0.27zm-3.106-0.197c-0.21 0.211-0.465 0.316-0.766 0.316s-0.556-0.105-0.766-0.316c-0.211-0.21-0.316-0.466-0.316-0.766 0-0.301 0.105-0.556 0.316-0.767 0.21-0.21 0.465-0.315 0.766-0.315s0.556 0.105 0.766 0.315c0.21 0.211 0.316 0.466 0.316 0.767 0 0.3-0.106 0.556-0.316 0.766zm10.458-0.201c-0.074-1.489-0.42-2.935-1.028-4.297-0.608-1.361-1.455-2.587-2.516-3.643-1.051-1.0562-2.277-1.9032-3.637-2.5102-1.363-0.609-2.809-0.955-4.298-1.029-0.025-0.001-0.05-0.002-0.075-0.002h-0.022c-0.056 0-0.111 0.003-0.166 0.009-0.037-0.003-0.074-0.005-0.112-0.007-0.025-0.001-0.049-0.002-0.074-0.002-0.499 0-0.952 0.182-1.298 0.513-0.374 0.352-0.58 0.828-0.58 1.348v0.806c0 0.311 0.084 0.609 0.229 0.8772-0.144 0.266-0.229 0.563-0.229 0.879v0.806c0 0.373 0.111 0.732 0.317 1.037-0.207 0.302-0.317 0.66-0.317 1.043v0.761c0 0.469 0.174 0.916 0.49 1.259 0.009 0.01 0.019 0.02 0.028 0.03-0.34 0.445-0.518 0.977-0.518 1.557 0 0.702 0.261 1.334 0.756 1.828 0.491 0.492 1.124 0.754 1.826 0.754 0.579 0 1.111-0.178 1.557-0.519 0.011 0.011 0.022 0.022 0.034 0.032 0.339 0.313 0.786 0.487 1.255 0.487h0.761c0.382 0 0.739-0.11 1.04-0.316 0.306 0.206 0.666 0.316 1.039 0.316h0.806c0.378 0 0.732-0.112 1.033-0.316 0.306 0.204 0.661 0.316 1.033 0.316h0.806c0.52 0 0.996-0.206 1.347-0.58 0.348-0.361 0.528-0.826 0.514-1.321 0.001-0.038 0.001-0.077-0.001-0.116z"/></g></g></g></g></g></svg><svg xmlns:xlink="http://www.w3.org/1999/xlink" height="25" width="25" version="1.1" viewBox="0 0 25 25" id="twitter" y="125"><title>Twitter</title><desc>Created with sketchtool.</desc><g id="twitter-404-page" fill-rule="evenodd" fill="none"><g id="twitter-XS---404" transform="translate(-94 -1090)"><g id="twitter-Footer---mobile" transform="translate(0 919)"><g id="twitter-Social" transform="translate(58 170)"><g id="twitter-Twitter" transform="translate(36 1)"><rect id="twitter-Rectangle-64" height="25" width="25" y="0" x="0" fill="#fff"/><path id="twitter-Fill-1" fill="#55ACEE" d="m21.227 6.6573c-0.634 0.2811-1.315 0.4711-2.03 0.5565 0.73-0.4374 1.29-1.13 1.554-1.9553-0.683 0.405-1.439 0.6991-2.244 0.8576-0.645-0.6869-1.563-1.1161-2.58-1.1161-1.952 0-3.534 1.5825-3.534 3.5342 0 0.2771 0.031 0.5468 0.091 0.8055-2.9373-0.1474-5.5415-1.5545-7.2847-3.6928-0.3042 0.522-0.4785 1.1292-0.4785 1.7769 0 1.2261 0.624 2.3079 1.5723 2.9422-0.5793-0.019-1.1243-0.178-1.6008-0.4425-0.0003 0.0147-0.0004 0.0295-0.0004 0.0444 0 1.7121 1.2183 3.1411 2.8352 3.4661-0.2966 0.08-0.6089 0.123-0.9312 0.123-0.2278 0-0.4491-0.022-0.6649-0.063 0.4497 1.404 1.755 2.426 3.3016 2.455-1.2097 0.948-2.7336 1.512-4.3895 1.512-0.2852 0-0.5666-0.016-0.8431-0.049 1.5642 1.003 3.4219 1.588 5.4178 1.588 6.5012 0 10.056-5.385 10.056-10.056 0-0.1532-0.004-0.3056-0.011-0.4571 0.691-0.4983 1.29-1.1208 1.764-1.8296"/></g></g></g></g></g></svg></svg>